<svg id="eSL6YKCF4vl1" xmlns="http://www.w3.org/2000/svg" xmlns:xlink="http://www.w3.org/1999/xlink" viewBox="-30 -140 1210 400" shape-rendering="geometricPrecision" text-rendering="geometricPrecision">
<style><![CDATA[
#eSL6YKCF4vl2 {animation: eSL6YKCF4vl2_c_o 3000ms linear 1 normal forwards}@keyframes eSL6YKCF4vl2_c_o { 0% {opacity: 0} 23.333333% {opacity: 0} 26.666667% {opacity: 1} 100% {opacity: 1}} #eSL6YKCF4vl3 {animation: eSL6YKCF4vl3__m 3000ms linear 1 normal forwards}@keyframes eSL6YKCF4vl3__m { 0% {d: path('M152.728668,140.223815L3.490347,72.325999M152.728668,140.223815')} 16.666667% {d: path('M152.728668,140.223815L3.490347,72.325999M152.728668,140.223815');animation-timing-function: cubic-bezier(0.25,0.46,0.45,0.94)} 30% {d: path('M116.881,5.81018L7.041759,166.213335M116.881,5.81018');animation-timing-function: cubic-bezier(0.165,0.84,0.44,1)} 43.333333% {d: path('M152.728668,140.223815L3.490347,72.325999M152.728668,140.223815')} 100% {d: path('M152.728668,140.223815L3.490347,72.325999M152.728668,140.223815')}} #eSL6YKCF4vl4 {animation: eSL6YKCF4vl4__m 3000ms linear 1 normal forwards}@keyframes eSL6YKCF4vl4__m { 0% {d: path('M152.728668,140.223815L144.547521,231.55991')} 16.666667% {d: path('M152.728668,140.223815L144.547521,231.55991');animation-timing-function: cubic-bezier(0.25,0.46,0.45,0.94)} 30% {d: path('M116.881,5.81018L99.8806,107.31');animation-timing-function: cubic-bezier(0.165,0.84,0.44,1)} 43.333333% {d: path('M152.728668,140.223815L144.547521,231.55991')} 100% {d: path('M152.728668,140.223815L144.547521,231.55991')}} #eSL6YKCF4vl5 {animation: eSL6YKCF4vl5__m 3000ms linear 1 normal forwards}@keyframes eSL6YKCF4vl5__m { 0% {d: path('M283.329588,48.922664L270.221772,127.922664M283.329588,48.922664')} 16.666667% {d: path('M283.329588,48.922664L270.221772,127.922664M283.329588,48.922664');animation-timing-function: cubic-bezier(0.25,0.46,0.45,0.94)} 30% {d: path('M286.881,142.81L304.381,200.81M286.881,142.81');animation-timing-function: cubic-bezier(0.165,0.84,0.44,1)} 43.333333% {d: path('M283.329588,48.922664L270.221772,127.922664M283.329588,48.922664')} 100% {d: path('M283.329588,48.922664L270.221772,127.922664M283.329588,48.922664')}} #eSL6YKCF4vl6 {animation: eSL6YKCF4vl6__m 3000ms linear 1 normal forwards}@keyframes eSL6YKCF4vl6__m { 0% {d: path('M0.793679,73.922664L16.829188,127.922664Q2.39723,79.322664,0.793679,73.922664ZM144.547521,231.55991')} 16.666667% {d: path('M0.793679,73.922664L16.829188,127.922664Q2.39723,79.322664,0.793679,73.922664ZM144.547521,231.55991');animation-timing-function: cubic-bezier(0.25,0.46,0.45,0.94)} 30% {d: path('M4.345091,167.81L20.3806,221.81Q5.948642,173.21,4.345091,167.81ZM99.8806,107.31');animation-timing-function: cubic-bezier(0.165,0.84,0.44,1)} 43.333333% {d: path('M0.793679,73.922664L16.829188,127.922664Q2.39723,79.322664,0.793679,73.922664ZM144.547521,231.55991')} 100% {d: path('M0.793679,73.922664L16.829188,127.922664Q2.39723,79.322664,0.793679,73.922664ZM144.547521,231.55991')}} #eSL6YKCF4vl7 {animation: eSL6YKCF4vl7__m 3000ms linear 1 normal forwards}@keyframes eSL6YKCF4vl7__m { 0% {d: path('M144.547521,231.55991L16.829188,127.922664M144.547521,231.55991')} 16.666667% {d: path('M144.547521,231.55991L16.829188,127.922664M144.547521,231.55991');animation-timing-function: cubic-bezier(0.25,0.46,0.45,0.94)} 30% {d: path('M99.8806,107.31L20.3806,221.81M99.8806,107.31');animation-timing-function: cubic-bezier(0.165,0.84,0.44,1)} 43.333333% {d: path('M144.547521,231.55991L16.829188,127.922664M144.547521,231.55991')} 100% {d: path('M144.547521,231.55991L16.829188,127.922664M144.547521,231.55991')}} #eSL6YKCF4vl8 {animation: eSL6YKCF4vl8__m 3000ms linear 1 normal forwards}@keyframes eSL6YKCF4vl8__m { 0% {d: path('M131.228668,0.56009L139.455644,67.841637M16.829188,127.922664')} 16.666667% {d: path('M131.228668,0.56009L139.455644,67.841637M16.829188,127.922664');animation-timing-function: cubic-bezier(0.25,0.46,0.45,0.94)} 30% {d: path('M205.381,190.31L226.881,254.31M20.3806,221.81');animation-timing-function: cubic-bezier(0.165,0.84,0.44,1)} 43.333333% {d: path('M131.228668,0.56009L139.455644,67.841637M16.829188,127.922664')} 100% {d: path('M131.228668,0.56009L139.455644,67.841637M16.829188,127.922664')}} #eSL6YKCF4vl9 {animation: eSL6YKCF4vl9__m 3000ms linear 1 normal forwards}@keyframes eSL6YKCF4vl9__m { 0% {d: path('M144.547521,231.55991L270.221772,127.922664M131.228668,0.56009')} 16.666667% {d: path('M144.547521,231.55991L270.221772,127.922664M131.228668,0.56009');animation-timing-function: cubic-bezier(0.25,0.46,0.45,0.94)} 30% {d: path('M99.8806,107.31L304.381,200.81M205.381,190.31');animation-timing-function: cubic-bezier(0.165,0.84,0.44,1)} 43.333333% {d: path('M144.547521,231.55991L270.221772,127.922664M131.228668,0.56009')} 100% {d: path('M144.547521,231.55991L270.221772,127.922664M131.228668,0.56009')}} #eSL6YKCF4vl10 {animation: eSL6YKCF4vl10__m 3000ms linear 1 normal forwards}@keyframes eSL6YKCF4vl10__m { 0% {d: path('M16.829188,127.922664L139.455644,67.841637M139.455644,67.841637')} 16.666667% {d: path('M16.829188,127.922664L139.455644,67.841637M139.455644,67.841637');animation-timing-function: cubic-bezier(0.25,0.46,0.45,0.94)} 30% {d: path('M20.3806,221.81L226.881,254.31M226.881,254.31');animation-timing-function: cubic-bezier(0.165,0.84,0.44,1)} 43.333333% {d: path('M16.829188,127.922664L139.455644,67.841637M139.455644,67.841637')} 100% {d: path('M16.829188,127.922664L139.455644,67.841637M139.455644,67.841637')}} #eSL6YKCF4vl11 {animation: eSL6YKCF4vl11__m 3000ms linear 1 normal forwards}@keyframes eSL6YKCF4vl11__m { 0% {d: path('M139.455644,67.841637L270.221772,127.922664')} 16.666667% {d: path('M139.455644,67.841637L270.221772,127.922664');animation-timing-function: cubic-bezier(0.25,0.46,0.45,0.94)} 30% {d: path('M226.881,254.31L304.381,200.81');animation-timing-function: cubic-bezier(0.165,0.84,0.44,1)} 43.333333% {d: path('M139.455644,67.841637L270.221772,127.922664')} 100% {d: path('M139.455644,67.841637L270.221772,127.922664')}} #eSL6YKCF4vl12 {animation: eSL6YKCF4vl12__m 3000ms linear 1 normal forwards}@keyframes eSL6YKCF4vl12__m { 0% {d: path('M152.728668,140.223815L283.329588,48.922664M152.728668,140.223815')} 16.666667% {d: path('M152.728668,140.223815L283.329588,48.922664M152.728668,140.223815');animation-timing-function: cubic-bezier(0.25,0.46,0.45,0.94)} 30% {d: path('M116.881,5.81018L286.881,142.81M116.881,5.81018');animation-timing-function: cubic-bezier(0.165,0.84,0.44,1)} 43.333333% {d: path('M152.728668,140.223815L283.329588,48.922664M152.728668,140.223815')} 100% {d: path('M152.728668,140.223815L283.329588,48.922664M152.728668,140.223815')}} #eSL6YKCF4vl14 {animation: eSL6YKCF4vl14__m 3000ms linear 1 normal forwards}@keyframes eSL6YKCF4vl14__m { 0% {d: path('M-56.201618,38.264076Q67.720418,96.748437,69.472632,98.345102Q71.224847,99.941767,82.580448,19.345102L-69.520472,-29.017472L-56.201618,38.264076Z')} 16.666667% {d: path('M-56.201618,38.264076Q67.720418,96.748437,69.472632,98.345102Q71.224847,99.941767,82.580448,19.345102L-69.520472,-29.017472L-56.201618,38.264076Z');animation-timing-function: cubic-bezier(0.25,0.46,0.45,0.94)} 30% {d: path('M26.13186,224.732438Q101.879644,169.635773,103.63186,171.232438Q105.384074,172.829103,86.13186,113.232438L4.63186,160.732438L26.13186,224.732438Z');animation-timing-function: cubic-bezier(0.165,0.84,0.44,1)} 43.333333% {d: path('M-56.201618,38.264076Q67.720418,96.748437,69.472632,98.345102Q71.224847,99.941767,82.580448,19.345102L-69.520472,-29.017472L-56.201618,38.264076Z')} 100% {d: path('M-56.201618,38.264076Q67.720418,96.748437,69.472632,98.345102Q71.224847,99.941767,82.580448,19.345102L-69.520472,-29.017472L-56.201618,38.264076Z')}} #eSL6YKCF4vl15 {animation: eSL6YKCF4vl15__m 3000ms linear 1 normal forwards}@keyframes eSL6YKCF4vl15__m { 0% {d: path('M-183.919952,98.345102Q-59.90382,37.612744,-58.151606,39.209409Q-56.399391,40.806074,-69.520472,-29.017472L-199.919901,44.345102L-183.919952,98.345102Z')} 16.666667% {d: path('M-183.919952,98.345102Q-59.90382,37.612744,-58.151606,39.209409Q-56.399391,40.806074,-69.520472,-29.017472L-199.919901,44.345102L-183.919952,98.345102Z');animation-timing-function: cubic-bezier(0.25,0.46,0.45,0.94)} 30% {d: path('M-180.368536,192.232438Q22.506136,223.135773,24.258352,224.732438Q26.010566,226.329103,2.758352,160.732438L-196.368489,138.232438L-180.368536,192.232438Z');animation-timing-function: cubic-bezier(0.165,0.84,0.44,1)} 43.333333% {d: path('M-183.919952,98.345102Q-59.90382,37.612744,-58.151606,39.209409Q-56.399391,40.806074,-69.520472,-29.017472L-199.919901,44.345102L-183.919952,98.345102Z')} 100% {d: path('M-183.919952,98.345102Q-59.90382,37.612744,-58.151606,39.209409Q-56.399391,40.806074,-69.520472,-29.017472L-199.919901,44.345102L-183.919952,98.345102Z')}} #eSL6YKCF4vl16 {animation: eSL6YKCF4vl16__m 3000ms linear 1 normal forwards}@keyframes eSL6YKCF4vl16__m { 0% {d: path('M-183.919952,98.345102Q-57.953833,200.385683,-56.201618,201.982348Q-54.449403,203.579013,-50.681581,112.272474L-199.919901,44.345102L-183.919952,98.345102Z')} 16.666667% {d: path('M-183.919952,98.345102Q-57.953833,200.385683,-56.201618,201.982348Q-54.449403,203.579013,-50.681581,112.272474L-199.919901,44.345102L-183.919952,98.345102Z');animation-timing-function: cubic-bezier(0.25,0.46,0.45,0.94)} 30% {d: path('M-180.368536,192.232438Q-102.620755,76.135774,-100.868539,77.732439Q-99.116325,79.329104,-83.86814,-22.170717L-196.368489,138.232438L-180.368536,192.232438Z');animation-timing-function: cubic-bezier(0.165,0.84,0.44,1)} 43.333333% {d: path('M-183.919952,98.345102Q-57.953833,200.385683,-56.201618,201.982348Q-54.449403,203.579013,-50.681581,112.272474L-199.919901,44.345102L-183.919952,98.345102Z')} 100% {d: path('M-183.919952,98.345102Q-57.953833,200.385683,-56.201618,201.982348Q-54.449403,203.579013,-50.681581,112.272474L-199.919901,44.345102L-183.919952,98.345102Z')}} #eSL6YKCF4vl17 {animation: eSL6YKCF4vl17__m 3000ms linear 1 normal forwards}@keyframes eSL6YKCF4vl17__m { 0% {d: path('M-186.601048,286.881999Q-62.679012,181.648087,-60.926797,183.244752Q-59.174582,184.841417,-47.818981,104.244752L-181.081006,197.172124L-186.601048,286.881999Z')} 16.666667% {d: path('M-186.601048,286.881999Q-62.679012,181.648087,-60.926797,183.244752Q-59.174582,184.841417,-47.818981,104.244752L-181.081006,197.172124L-186.601048,286.881999Z');animation-timing-function: cubic-bezier(0.25,0.46,0.45,0.94)} 30% {d: path('M-231.267969,162.63209Q-28.519785,254.535423,-26.767569,256.132088Q-25.015355,257.728753,-44.267569,193.135147L-214.267569,62.728933L-231.267969,162.63209Z');animation-timing-function: cubic-bezier(0.165,0.84,0.44,1)} 43.333333% {d: path('M-186.601048,286.881999Q-62.679012,181.648087,-60.926797,183.244752Q-59.174582,184.841417,-47.818981,104.244752L-181.081006,197.172124L-186.601048,286.881999Z')} 100% {d: path('M-186.601048,286.881999Q-62.679012,181.648087,-60.926797,183.244752Q-59.174582,184.841417,-47.818981,104.244752L-181.081006,197.172124L-186.601048,286.881999Z')}} #eSL6YKCF4vl18 {animation-name: eSL6YKCF4vl18__m, eSL6YKCF4vl18_c_o;animation-duration: 3000ms;animation-fill-mode: forwards;animation-timing-function: linear;animation-direction: normal;animation-iteration-count: 1;}@keyframes eSL6YKCF4vl18__m { 0% {d: path('M144.547522,67.841637C144.547522,67.841637,131.228668,0.560091,131.228668,0.560091')} 16.666667% {d: path('M144.547522,67.841637C144.547522,67.841637,131.228668,0.560091,131.228668,0.560091');animation-timing-function: cubic-bezier(0.25,0.46,0.45,0.94)} 19.666667% {d: path('M141.486073,83.488486C141.486073,83.488486,170.650152,85.717422,170.650152,85.717422');animation-timing-function: cubic-bezier(0.25,0.46,0.45,0.94)} 30% {d: path('M116.881,5.81018C116.881,5.81018,205.381,190.31,205.381,190.31');animation-timing-function: cubic-bezier(0.215,0.61,0.355,1)} 33.333333% {d: path('M134.653062,82.152551C134.653062,82.152551,163.114171,82.152551,163.114171,82.152551');animation-timing-function: cubic-bezier(0.165,0.84,0.44,1)} 43.333333% {d: path('M144.547522,67.841637C144.547522,67.841637,131.228668,0.560091,131.228668,0.560091')} 100% {d: path('M144.547522,67.841637C144.547522,67.841637,131.228668,0.560091,131.228668,0.560091')}}@keyframes eSL6YKCF4vl18_c_o { 0% {opacity: 0} 19.666667% {opacity: 0;animation-timing-function: step-start} 30% {opacity: 1;animation-timing-function: step-end} 32.333333% {opacity: 0} 100% {opacity: 0}} #eSL6YKCF4vl19 {animation: eSL6YKCF4vl19__m 3000ms linear 1 normal forwards}@keyframes eSL6YKCF4vl19__m { 0% {d: path('M0.829238,73.922664L131.228668,0.56009M0.793679,73.922664')} 16.666667% {d: path('M0.829238,73.922664L131.228668,0.56009M0.793679,73.922664');animation-timing-function: cubic-bezier(0.25,0.46,0.45,0.94)} 30% {d: path('M4.38065,167.81L205.381,190.31M4.345091,167.81');animation-timing-function: cubic-bezier(0.165,0.84,0.44,1)} 43.333333% {d: path('M0.829238,73.922664L131.228668,0.56009M0.793679,73.922664')} 100% {d: path('M0.829238,73.922664L131.228668,0.56009M0.793679,73.922664')}} #eSL6YKCF4vl21 {animation: eSL6YKCF4vl21__m 3000ms linear 1 normal forwards}@keyframes eSL6YKCF4vl21__m { 0% {d: path('M283.329588,48.922664L131.228668,0.56009')} 16.666667% {d: path('M283.329588,48.922664L131.228668,0.56009');animation-timing-function: cubic-bezier(0.25,0.46,0.45,0.94)} 30% {d: path('M286.881,142.81L205.381,190.31');animation-timing-function: cubic-bezier(0.165,0.84,0.44,1)} 43.333333% {d: path('M283.329588,48.922664L131.228668,0.56009')} 100% {d: path('M283.329588,48.922664L131.228668,0.56009')}} #eSL6YKCF4vl23 {animation: eSL6YKCF4vl23_c_o 3000ms linear 1 normal forwards}@keyframes eSL6YKCF4vl23_c_o { 0% {opacity: 1} 3.333333% {opacity: 0} 6.666667% {opacity: 1} 100% {opacity: 1}} #eSL6YKCF4vl24 {animation: eSL6YKCF4vl24_c_o 3000ms linear 1 normal forwards}@keyframes eSL6YKCF4vl24_c_o { 0% {opacity: 1} 16.666667% {opacity: 0} 20% {opacity: 1} 100% {opacity: 1}} #eSL6YKCF4vl25 {animation: eSL6YKCF4vl25_c_o 3000ms linear 1 normal forwards}@keyframes eSL6YKCF4vl25_c_o { 0% {opacity: 1} 6.666667% {opacity: 0} 10% {opacity: 1} 100% {opacity: 1}} #eSL6YKCF4vl26 {animation: eSL6YKCF4vl26_c_o 3000ms linear 1 normal forwards}@keyframes eSL6YKCF4vl26_c_o { 0% {opacity: 1} 13.333333% {opacity: 0} 16.666667% {opacity: 1} 100% {opacity: 1}} #eSL6YKCF4vl27 {animation: eSL6YKCF4vl27_c_o 3000ms linear 1 normal forwards}@keyframes eSL6YKCF4vl27_c_o { 0% {opacity: 1} 10% {opacity: 0} 13.333333% {opacity: 1} 100% {opacity: 1}} #eSL6YKCF4vl28 {animation: eSL6YKCF4vl28_c_o 3000ms linear 1 normal forwards}@keyframes eSL6YKCF4vl28_c_o { 0% {opacity: 1} 11% {opacity: 0} 14.333333% {opacity: 1} 100% {opacity: 1}}
]]></style>
<g id="eSL6YKCF4vl2" transform="translate(.000001 0.000001)" opacity="0"><path id="eSL6YKCF4vl3" d="M152.728668,140.223815L3.490347,72.325999m149.238321,67.897816" transform="translate(-2.024154 1.036575)" fill="#fff" stroke="#6a8dd4" stroke-width="8" stroke-linecap="round" stroke-linejoin="round"/><path id="eSL6YKCF4vl4" d="M152.728668,140.223815l-8.181147,91.336095" transform="translate(.636955-.56009)" opacity="0" fill="#fff" stroke="#6a8dd4" stroke-width="8" stroke-linecap="round" stroke-linejoin="round"/><path id="eSL6YKCF4vl5" d="M283.329588,48.922664l-13.107816,79m13.107816-79" transform="translate(.636955-.56009)" fill="#fff" stroke="#6a8dd4" stroke-width="8" stroke-linecap="round" stroke-linejoin="round"/><path id="eSL6YKCF4vl6" d="M0.793679,73.922664l16.035509,54q-14.431958-48.6-16.035509-54ZM144.547521,231.55991" transform="translate(.636955-.56009)" fill="#fff" stroke="#6a8dd4" stroke-width="8" stroke-linecap="round" stroke-linejoin="round"/><path id="eSL6YKCF4vl7" d="M144.547521,231.55991L16.829188,127.922664M144.547521,231.55991" transform="translate(.636955-.56009)" fill="#fff" stroke="#6a8dd4" stroke-width="8" stroke-linecap="round" stroke-linejoin="round"/><path id="eSL6YKCF4vl8" d="M131.228668,0.56009l8.226976,67.281547M16.829188,127.922664" transform="translate(.636955-.56009)" fill="#fff" stroke="#6a8dd4" stroke-width="8" stroke-linecap="round" stroke-linejoin="round"/><path id="eSL6YKCF4vl9" d="M144.547521,231.55991L270.221772,127.922664M131.228668,0.56009" transform="translate(.636955-.56009)" fill="#fff" stroke="#6a8dd4" stroke-width="8" stroke-linecap="round" stroke-linejoin="round"/><path id="eSL6YKCF4vl10" d="M16.829188,127.922664L139.455644,67.841637m0,0" transform="translate(.636955-.56009)" fill="#fff" stroke="#6a8dd4" stroke-width="8" stroke-linecap="round" stroke-linejoin="round"/><path id="eSL6YKCF4vl11" d="M139.455644,67.841637l130.766128,60.081027" transform="translate(.636955-.56009)" fill="#fff" stroke="#6a8dd4" stroke-width="8" stroke-linecap="round" stroke-linejoin="round"/><path id="eSL6YKCF4vl12" d="M152.728668,140.223815l130.60092-91.301151m-130.60092,91.301151" transform="translate(.636955-.56009)" fill="#fff" stroke="#6a8dd4" stroke-width="8" stroke-linecap="round" stroke-linejoin="round"/><path d="" fill="#fff" stroke="#6a8dd4" stroke-width="0.62"/><path id="eSL6YKCF4vl14" d="M-56.201618,38.264076Q67.720418,96.748437,69.472632,98.345102t13.107816-79l-152.10092-48.362574l13.318854,67.281548Z" transform="translate(201.386095 29.017472)" fill="#515151" stroke="#6a8dd4" stroke-width="8" stroke-linecap="round" stroke-linejoin="round"/><path id="eSL6YKCF4vl15" d="M-183.919952,98.345102Q-59.90382,37.612744,-58.151606,39.209409t-11.368866-68.226881L-199.919901,44.345102l15.999949,54Z" transform="translate(203.259603 29.017472)" fill="#515151" stroke="#6a8dd4" stroke-width="8" stroke-linecap="round" stroke-linejoin="round"/><path id="eSL6YKCF4vl16" d="M-183.919952,98.345102Q-57.953833,200.385683,-56.201618,201.982348t5.520037-89.709874l-149.23832-67.927372l15.999949,54Z" transform="translate(201.386095 29.017472)" fill="#515151" stroke="#6a8dd4" stroke-width="8" stroke-linecap="round" stroke-linejoin="round"/><path id="eSL6YKCF4vl17" d="M-186.601048,286.881999Q-62.679012,181.648087,-60.926797,183.244752t13.107816-79l-133.262025,92.927372-5.520042,89.709875Z" transform="translate(331.785524-55.882178)" fill="#515151" stroke="#6a8dd4" stroke-width="8" stroke-linecap="round" stroke-linejoin="round"/><path id="eSL6YKCF4vl18" d="M144.547522,67.841637c0,0-13.318854-67.281546-13.318854-67.281546" transform="translate(.636955-.56009)" opacity="0" fill="#fff" stroke="#6a8dd4" stroke-width="8" stroke-linecap="round" stroke-linejoin="round"/><path id="eSL6YKCF4vl19" d="M0.829238,73.922664L131.228668,0.56009M0.793679,73.922664" transform="translate(.636955-.56009)" fill="#fff" stroke="#6a8dd4" stroke-width="8" stroke-linecap="round" stroke-linejoin="round"/><path id="eSL6YKCF4vl21" d="M283.329588,48.922664L131.228668,0.56009" transform="translate(.636955-.56009)" fill="#fff" stroke="#6a8dd4" stroke-width="8" stroke-linecap="round" stroke-linejoin="round"/></g><g transform="matrix(1.25712 0 0 1.25712 345.607609-14.572966)"><path id="eSL6YKCF4vl23" d="M588.151,137v-95.58h10.8v17.82l-1.98-1.62c2.04-5.4,5.52-9.66,10.44-12.78c5.04-3.12,10.98-4.68,17.82-4.68h6.12v10.8h-7.38c-7.8,0-13.92,2.52-18.36,7.56-4.44,4.92-6.66,11.58-6.66,19.98v58.5h-10.8Z" fill="#6a8dd4"/><path id="eSL6YKCF4vl24" d="M520.094,139.16c-9,0-17.1-2.16-24.3-6.48-7.2-4.44-12.9-10.44-17.1-18-4.2-7.68-6.3-16.26-6.3-25.74s2.04-17.94,6.12-25.38c4.08-7.56,9.6-13.5,16.56-17.82s14.76-6.48,23.4-6.48c6.6,0,12.54,1.2,17.82,3.6c5.4,2.4,10.02,5.76,13.86,10.08c3.96,4.2,6.96,9.06,9,14.58c2.16,5.4,3.24,11.1,3.24,17.1c0,1.2-.06,2.46-.18,3.78s-.3,2.7-.54,4.14h-82.98v-9.9h76.86l-4.86,3.78c.72-6.96-.3-13.2-3.06-18.72-2.76-5.64-6.72-10.08-11.88-13.32-5.04-3.36-10.8-5.04-17.28-5.04s-12.42,1.74-17.82,5.22c-5.4,3.36-9.66,8.04-12.78,14.04-3.12,5.88-4.56,12.72-4.32,20.52-.24,7.8,1.26,14.7,4.5,20.7s7.68,10.74,13.32,14.22c5.64,3.36,11.88,5.04,18.72,5.04c6.96,0,13.02-1.62,18.18-4.86c5.16-3.36,9.36-7.8,12.6-13.32l9.18,4.86c-2.16,4.44-5.22,8.46-9.18,12.06-3.96,3.48-8.58,6.24-13.86,8.28-5.16,2.04-10.8,3.06-16.92,3.06Z" fill="#6a8dd4"/><path id="eSL6YKCF4vl25" d="M398.612,139.16c-8.88,0-16.92-2.16-24.12-6.48-7.08-4.44-12.66-10.44-16.74-18s-6.12-16.08-6.12-25.56s2.04-18,6.12-25.56s9.66-13.5,16.74-17.82c7.2-4.32,15.24-6.48,24.12-6.48c8.76,0,16.56,2.1,23.4,6.3c6.84,4.08,12,9.6,15.48,16.56l-1.8,3.42v-64.80001h10.8v136.26001h-10.8v-24.3l1.8,2.52c-3.36,7.44-8.52,13.32-15.48,17.64-6.84,4.2-14.64,6.3-23.4,6.3Zm.36-10.8c6.96,0,13.14-1.68,18.54-5.04c5.52-3.48,9.9-8.16,13.14-14.04c3.24-6,4.86-12.72,4.86-20.16s-1.62-14.1-4.86-19.98-7.62-10.5-13.14-13.86c-5.4-3.48-11.58-5.22-18.54-5.22-6.84,0-12.96,1.74-18.36,5.22-5.4,3.36-9.66,7.98-12.78,13.86s-4.68,12.54-4.68,19.98s1.56,14.16,4.68,20.16c3.12,5.88,7.38,10.56,12.78,14.04c5.4,3.36,11.52,5.04,18.36,5.04Z" fill="#6a8dd4"/><path id="eSL6YKCF4vl26" d="M252.585,137v-95.58h10.8v19.26l-2.7-.72c2.16-6.36,6-11.4,11.52-15.12c5.64-3.72,12.18-5.58,19.62-5.58c6.6,0,12.6,1.5,18,4.5s9.72,7.2,12.96,12.6c3.24,5.28,4.86,11.34,4.86,18.18v62.46h-10.8v-59.4c0-5.76-1.14-10.68-3.42-14.76-2.28-4.2-5.46-7.38-9.54-9.54-3.96-2.28-8.52-3.42-13.68-3.42-5.4,0-10.14,1.26-14.22,3.78s-7.2,6-9.36,10.44-3.24,9.54-3.24,15.3v57.6h-10.8Z" fill="#6a8dd4"/><path id="eSL6YKCF4vl27" d="M176.761,139.16c-6,0-11.34-1.14-16.02-3.42s-8.4-5.46-11.16-9.54-4.14-8.76-4.14-14.04c0-4.68,1.02-9.06,3.06-13.14s5.34-7.56,9.9-10.44c4.56-3,10.5-5.1,17.82-6.3l38.7-6.48v10.08l-35.82,5.94c-8.16,1.32-13.92,3.78-17.28,7.38s-5.04,7.8-5.04,12.6c0,5.16,1.92,9.36,5.76,12.6c3.96,3.24,8.94,4.86,14.94,4.86c6.96,0,13.02-1.56,18.18-4.68c5.16-3.24,9.18-7.44,12.06-12.6c2.88-5.28,4.32-11.04,4.32-17.28v-23.76c0-6.36-2.28-11.52-6.84-15.48s-10.5-5.94-17.82-5.94c-6,0-11.4,1.5-16.2,4.5s-8.46,6.9-10.98,11.7l-9.72-5.22c1.8-3.84,4.56-7.38,8.28-10.62s8.04-5.82,12.96-7.74s10.14-2.88,15.66-2.88c6.96,0,13.08,1.38,18.36,4.14c5.4,2.64,9.6,6.36,12.6,11.16c3,4.68,4.5,10.14,4.5,16.38v66.06h-10.8v-19.98l1.26.9c-1.56,3.84-4.14,7.38-7.74,10.62-3.6,3.12-7.86,5.7-12.78,7.74-4.8,1.92-10.14,2.88-16.02,2.88Z" fill="#6a8dd4"/><path id="eSL6YKCF4vl28" d="M32.82,137L0.059998,41.42h12.060002L40.74,128h-4.68L61.98,41.42h10.98L98.88,128h-4.68L123,41.42h12.06L102.12,137h-10.98L66.12,53.48h2.7L43.8,137h-10.98Z" fill="#6a8dd4"/></g></svg>
